# xmcd
#
# Track frame offsets:
#	150
#	9432
#	22829
#	38495
#	49644
#	67913
#	86703
#	103741
#	116362
#	128811
#	146314
#	159027
#	171698
#	186069
#
# Disc length: 2744 seconds
#
# Revision: 0
# Processed by: cddbd v1.5.2PL0 Copyright (c) Steve Scherf et al.
# Submitted via: dBpowerAMP V4.0
#
DISCID=a40ab60e
DTITLE=Midnight Flyer - Country Line Dance Songs Part 2
DYEAR=1900
DGENRE=
TTITLE0=Don't be cruell
TTITLE1=It won't hurt
TTITLE2=Cannibals
TTITLE3=Two of a kind
TTITLE4=Mexican wind
TTITLE5=Two pina coladas
TTITLE6=Heart is right
TTITLE7=Honky tonk man
TTITLE8=What part of no
TTITLE9=Neon moon
TTITLE10=Waltz of roses and wine
TTITLE11=Big big love
TTITLE12=Achy breaky heart
TTITLE13=Dance the night away
EXTD=Country Linedance Songs
EXTT0=
EXTT1=
EXTT2=
EXTT3=
EXTT4=
EXTT5=
EXTT6=
EXTT7=
EXTT8=
EXTT9=
EXTT10=
EXTT11=
EXTT12=
EXTT13=
PLAYORDER=
